<svg aria-hidden="true" style="position: absolute; width: 0; height: 0; overflow: hidden;" version="1.1" xmlns="http://www.w3.org/2000/svg" xmlns:xlink="http://www.w3.org/1999/xlink">
<defs>
<symbol id="icon-linkedin" viewBox="0 0 32 32">
<path d="M31.992 32h0.008v-11.738c0-5.741-1.237-10.163-7.947-10.163-3.227 0-5.392 1.77-6.277 3.45h-0.093v-2.914h-6.365v21.363h6.627v-10.578c0-2.786 0.528-5.48 3.978-5.48 3.398 0 3.448 3.179 3.448 5.658v10.402h6.621zM0.528 10.635h6.635v21.365h-6.635v-21.365zM3.843 0c-2.123 0-3.843 1.721-3.843 3.843v0c0 2.12 1.722 3.878 3.843 3.878 2.12 0 3.842-1.757 3.842-3.878s-1.72-3.841-3.841-3.843h-0z"></path>
</symbol>
<symbol id="icon-mail" viewBox="0 0 48 40">
<path d="M38.667 0h-34.667c-2.205 0-4 1.795-4 4v24c0 2.205 1.795 4 4 4h34.667c2.205 0 4-1.795 4-4v-24c0-2.205-1.795-4-4-4zM38.667 2.667c0.181 0 0.355 0.037 0.512 0.104l-17.845 15.467-17.845-15.467c0.151-0.065 0.327-0.104 0.512-0.104h34.667zM38.667 29.333h-34.667c-0.736 0-1.333-0.597-1.333-1.333v0-22.413l17.792 15.421c0.233 0.203 0.539 0.327 0.875 0.327s0.642-0.124 0.876-0.328l-0.002 0.001 17.792-15.421v22.413c0 0.736-0.597 1.333-1.333 1.333v0z"></path>
</symbol>
<symbol id="icon-tel" viewBox="0 0 60 60">
<path d="M53.364,40.908c-2.008-3.796-8.981-7.912-9.288-8.092c-0.896-0.51-1.831-0.78-2.706-0.78c-1.301,0-2.366,0.596-3.011,1.68
	c-1.02,1.22-2.285,2.646-2.592,2.867c-2.376,1.612-4.236,1.429-6.294-0.629L17.987,24.467c-2.045-2.045-2.233-3.928-0.632-6.291
	c0.224-0.309,1.65-1.575,2.87-2.596c0.778-0.463,1.312-1.151,1.546-1.995c0.311-1.123,0.082-2.444-0.652-3.731
	c-0.173-0.296-4.291-7.27-8.085-9.277c-0.708-0.375-1.506-0.573-2.306-0.573c-1.318,0-2.558,0.514-3.49,1.445L4.7,3.986
	c-4.014,4.013-5.467,8.562-4.321,13.52c0.956,4.132,3.742,8.529,8.282,13.068l14.705,14.705c5.746,5.746,11.224,8.66,16.282,8.66
	c0,0,0,0,0.001,0c3.72,0,7.188-1.581,10.305-4.698l2.537-2.537C54.033,45.163,54.383,42.833,53.364,40.908z"/>
</symbol>
<symbol id="icon-github" viewBox="0 0 62 62">
<path d="M32 0 C14 0 0 14 0 32 0 53 19 62 22 62 24 62 24 61 24 60 L24 55 C17 57 14 53 13 50 13 50 13 49 11 47 10 46 6 44 10 44 13 44 15 48 15 48 18 52 22 51 24 50 24 48 26 46 26 46 18 45 12 42 12 31 12 27 13 24 15 22 15 22 13 18 15 13 15 13 20 13 24 17 27 15 37 15 40 17 44 13 49 13 49 13 51 20 49 22 49 22 51 24 52 27 52 31 52 42 45 45 38 46 39 47 40 49 40 52 L40 60 C40 61 40 62 42 62 45 62 64 53 64 32 64 14 50 0 32 0 Z"/>
</symbol>
<symbol id="icon-location" viewBox="0 0 300 400">
<path d="M213.285,0h-0.608C139.114,0,79.268,59.826,79.268,133.361c0,48.202,21.952,111.817,65.246,189.081
	c32.098,57.281,64.646,101.152,64.972,101.588c0.906,1.217,2.334,1.934,3.847,1.934c0.043,0,0.087,0,0.13-0.002
	c1.561-0.043,3.002-0.842,3.868-2.143c0.321-0.486,32.637-49.287,64.517-108.976c43.03-80.563,64.848-141.624,64.848-181.482
	C346.693,59.825,286.846,0,213.285,0z M274.865,136.62c0,34.124-27.761,61.884-61.885,61.884
	c-34.123,0-61.884-27.761-61.884-61.884s27.761-61.884,61.884-61.884C247.104,74.736,274.865,102.497,274.865,136.62z"/>
</symbol>
<symbol id="icon-telegram" viewBox="0 0 20 20">
<path d="m20.665 3.717-17.73 6.837c-1.21.486-1.203 1.161-.222 1.462l4.552 1.42 10.532-6.645c.498-.303.953-.14.579.192l-8.533 7.701h-.002l.002.001-.314 4.692c.46 0 .663-.211.921-.46l2.211-2.15 4.599 3.397c.848.467 1.457.227 1.668-.785l3.019-14.228c.309-1.239-.473-1.8-1.282-1.434z"/>
</symbol>
</defs>
</svg>
